<svg width="100" height="100" viewBox="0 0 100 100" fill="none" xmlns="http://www.w3.org/2000/svg">
<path d="M82.55 56.24C82.2934 50.8747 80.2443 45.7505 76.7308 41.6876C73.2172 37.6247 68.4422 34.8579 63.17 33.83C60.938 27.2362 56.4359 21.65 50.4668 18.0682C44.4977 14.4864 37.4502 13.142 30.5817 14.2749C23.7133 15.4078 17.4708 18.9444 12.9683 24.2535C8.46572 29.5625 5.99606 36.2987 5.99999 43.26C5.98945 49.1373 7.76065 54.8798 11.08 59.73C9.50447 61.1392 8.24458 62.8654 7.3829 64.7956C6.52123 66.7258 6.07722 68.8162 6.07999 70.93C6.0813 72.9256 6.47583 74.9014 7.24104 76.7445C8.00624 78.5876 9.12713 80.2618 10.5396 81.6716C11.9521 83.0813 13.6286 84.1989 15.4732 84.9604C17.3178 85.722 19.2944 86.1126 21.29 86.11H78.82C82.5149 86.1059 86.0812 84.7534 88.8497 82.3064C91.6182 79.8594 93.3984 76.4862 93.8563 72.8198C94.3141 69.1533 93.4181 65.4459 91.3364 62.3932C89.2547 59.3406 86.1304 57.1526 82.55 56.24V56.24ZM35.37 16.89C40.6395 16.8639 45.7944 18.4274 50.1615 21.3763C54.5287 24.3252 57.9051 28.5225 59.85 33.42H58.72C55.4416 33.4125 52.1969 34.0819 49.1891 35.3862C46.1813 36.6905 43.4751 38.6016 41.24 41C39.5398 40.4931 37.7741 40.2404 36 40.25C31.5409 40.2676 27.2386 41.8969 23.8864 44.8374C20.5343 47.7778 18.3584 51.8312 17.76 56.25C17.31 56.36 16.87 56.49 16.43 56.64L16.05 56.78C15.73 56.9 15.41 57.03 15.05 57.17L14.68 57.34C14.26 57.54 13.85 57.75 13.45 57.99C10.5218 53.638 8.97122 48.5054 8.99999 43.26C9.00793 36.2687 11.7887 29.566 16.7324 24.6224C21.676 19.6788 28.3787 16.8979 35.37 16.89V16.89ZM78.82 83.11H21.29C18.2346 83.1058 15.2925 81.9524 13.0483 79.879C10.804 77.8056 9.42183 74.9638 9.17622 71.9183C8.93062 68.8728 9.83958 65.8462 11.7226 63.44C13.6055 61.0337 16.3247 59.4238 19.34 58.93L20.51 58.74L20.6 57.56C20.7627 55.1839 21.4757 52.8781 22.6827 50.825C23.8897 48.7718 25.5576 47.0274 27.5546 45.7297C29.5517 44.4319 31.8232 43.6163 34.1896 43.3474C36.5561 43.0784 38.9526 43.3635 41.19 44.18L42.19 44.53L42.86 43.74C44.8146 41.4413 47.2451 39.5945 49.9834 38.3272C52.7218 37.0599 55.7026 36.4024 58.72 36.4C61.4593 36.3894 64.1737 36.9209 66.7068 37.9637C69.2399 39.0065 71.5417 40.5401 73.4796 42.4762C75.4176 44.4123 76.9534 46.7126 77.9986 49.2447C79.0439 51.7768 79.5779 54.4907 79.57 57.23C79.57 57.31 79.57 57.39 79.57 57.46V58.74L80.83 58.94C83.8367 59.4479 86.5432 61.0659 88.4139 63.474C90.2846 65.8821 91.1831 68.9047 90.9317 71.9436C90.6802 74.9826 89.2971 77.8164 87.056 79.8842C84.815 81.9521 81.8793 83.1033 78.83 83.11H78.82Z" fill="black"/>
</svg>
